<svg xmlns="http://www.w3.org/2000/svg" width="512" height="512" viewBox="0 0 512 512" role="img" aria-label="D-CLIX Sports Technology Platform">
  <defs>
    <radialGradient id="gBg" cx="35%" cy="30%" r="75%">
      <stop offset="0%" stop-color="#2a2a2a"/>
      <stop offset="55%" stop-color="#161616"/>
      <stop offset="100%" stop-color="#0a0a0a"/>
    </radialGradient>
    <linearGradient id="gRim" x1="0" y1="0" x2="1" y2="1">
      <stop offset="0%" stop-color="#ffb100"/>
      <stop offset="45%" stop-color="#ff7a00"/>
      <stop offset="100%" stop-color="#ffcc6a"/>
    </linearGradient>
    <linearGradient id="gAccent" x1="0" y1="0" x2="1" y2="1">
      <stop offset="0%" stop-color="#22c55e"/>
      <stop offset="60%" stop-color="#facc15"/>
      <stop offset="100%" stop-color="#fb7185"/>
    </linearGradient>
    <filter id="fShadow" x="-20%" y="-20%" width="140%" height="140%">
      <feDropShadow dx="0" dy="10" stdDeviation="10" flood-color="#000" flood-opacity="0.55"/>
    </filter>
    <filter id="fSoft" x="-20%" y="-20%" width="140%" height="140%">
      <feGaussianBlur stdDeviation="0.6"/>
    </filter>
  </defs>

  <circle cx="256" cy="256" r="244" fill="url(#gRim)"/>
  <circle cx="256" cy="256" r="224" fill="#0b0b0b"/>
  <circle cx="256" cy="256" r="214" fill="url(#gBg)"/>

  <g opacity="0.25" stroke="#94a3b8" stroke-width="2" fill="none" filter="url(#fSoft)">
    <path d="M128 184h44l18-24 28 40 30-18 36 52 28-22 26 30h40"/>
    <path d="M150 310h54l18-18 22 30 28-12 22 26 22-18 34 30h56"/>
    <circle cx="190" cy="160" r="4" fill="#a7f3d0" stroke="none"/>
    <circle cx="254" cy="200" r="4" fill="#a7f3d0" stroke="none"/>
    <circle cx="326" cy="234" r="4" fill="#a7f3d0" stroke="none"/>
  </g>

  <g transform="translate(256 118)" filter="url(#fShadow)">
    <path d="M0 10l54 28v34c0 38-26 72-54 82C-28 144-54 110-54 72V38L0 10z" fill="#0f172a" opacity="0.9"/>
    <path d="M0 26l38 20v24c0 26-18 50-38 58C-20 120-38 96-38 70V46L0 26z" fill="#111827"/>
    <path d="M-14 54h28v10c0 10-6 18-14 22-8-4-14-12-14-22V54z" fill="#e2e8f0"/>
    <path d="M-24 48c0-8 6-14 14-14h40c8 0 14 6 14 14v6c0 6-4 10-10 10h-4v-8c0-4-3-7-7-7h-26c-4 0-7 3-7 7v8h-4c-6 0-10-4-10-10v-6z" fill="#e2e8f0" opacity="0.95"/>
    <path d="M-44 54c0-8 6-14 14-14h8v12h-2c-4 0-7 3-7 7v4c0 4 3 7 7 7h2v12h-8c-8 0-14-6-14-14V54z" fill="#a7f3d0" opacity="0.9"/>
    <path d="M44 54c0-8-6-14-14-14h-8v12h2c4 0 7 3 7 7v4c0 4-3 7-7 7h-2v12h8c8 0 14-6 14-14V54z" fill="#a7f3d0" opacity="0.9"/>
  </g>

  <g font-family="system-ui, -apple-system, Segoe UI, Roboto, Helvetica, Arial, sans-serif" text-anchor="middle" filter="url(#fShadow)">
    <text x="256" y="262" fill="#f8fafc" font-size="92" font-weight="900" letter-spacing="1">D-CLIX</text>
    <path d="M220 248l16 8-16 8z" fill="url(#gAccent)"/>
    <text x="256" y="300" fill="#e2e8f0" font-size="18" font-weight="700" letter-spacing="4">SPORTS TECHNOLOGY PLATFORM</text>
  </g>

  <g transform="translate(256 330)" filter="url(#fShadow)">
    <path d="M-186 16c70-44 144-56 186-56s116 12 186 56c-16 24-30 42-48 54-84-38-138-42-138-42s-54 4-138 42c-18-12-32-30-48-54z" fill="#0b0b0b" opacity="0.9"/>
    <path d="M-172 22c62-36 130-46 172-46s110 10 172 46c-10 14-20 24-32 34-80-32-140-36-140-36s-60 4-140 36c-12-10-22-20-32-34z" fill="#111" opacity="0.95"/>

    <path d="M-42 36l42-26 42 26v86c0 14-12 26-26 26H-16c-14 0-26-12-26-26V36z" fill="#0b0b0b"/>
    <path d="M-16 18L0 8l16 10-16 10-16-10z" fill="#111827"/>
    <path d="M-8 46l8-6 8 6v18c0 4-4 8-8 8s-8-4-8-8V46z" fill="url(#gRim)"/>
    <path d="M-48 34l48 30 48-30" stroke="#f8fafc" stroke-opacity="0.7" stroke-width="4" fill="none"/>
  </g>

  <circle cx="256" cy="256" r="224" fill="none" stroke="#000" stroke-opacity="0.35" stroke-width="10"/>
</svg>
